# xmcd CD database file
#
# Track frame offsets:
#	180
#	15414
#	29571
#	42882
#	64414
#	75691
#	89302
#	110513
#	123900
#	137684
#	151499
#	173727
#	208109
#	218183
#	234845
#	249049
#	285213
#
# Disc length: 4092 seconds
#
# Revision: 0
# Processed by: cddbd v1.5.2PL0 Copyright (c) Steve Scherf et al.
# Submitted via: CDex 1.51
#
DISCID=db0ffa11
DTITLE=Les Nouveaux Monstres - Amnésie Internationale
DYEAR=1998
DGENRE=Jazz
TTITLE0=Ground Zero
TTITLE1=Le voyageur sédentaire
TTITLE2=Image d'enfance
TTITLE3=Dream
TTITLE4=La force de l'épreuve
TTITLE5=Grandeurs et misères
TTITLE6=Modeste proposition
TTITLE7=Noir-Blanc
TTITLE8=La fièvre monte
TTITLE9=La fleur au fusil
TTITLE10=Jouissez sans entraves
TTITLE11=Pollutions
TTITLE12=Nécessaire repos
TTITLE13=La machine nous enlace...
TTITLE14=Les petites soeurs
TTITLE15=1989
TTITLE16=La chute
EXTD=YEAR: 1998
EXTT0=
EXTT1=
EXTT2=
EXTT3=
EXTT4=
EXTT5=
EXTT6=
EXTT7=
EXTT8=
EXTT9=
EXTT10=
EXTT11=
EXTT12=
EXTT13=
EXTT14=
EXTT15=
EXTT16=
PLAYORDER=
